<?xml version="1.0" encoding="utf-8"?>
<!-- Generator: Adobe Illustrator 23.0.1, SVG Export Plug-In . SVG Version: 6.00 Build 0)  -->
<svg version="1.1" id="Capa_1" xmlns="http://www.w3.org/2000/svg" xmlns:xlink="http://www.w3.org/1999/xlink" x="0px" y="0px"
	 viewBox="0 0 605 40" style="enable-background:new 0 0 605 40;" xml:space="preserve">
<g>
	<path d="M3.46,11.48h2.83c0.72,0,0.96,0.24,0.96,0.96v15.1c0,0.72-0.24,0.96-0.96,0.96H3.46c-0.72,0-0.96-0.24-0.96-0.96v-15.1
		C2.5,11.72,2.74,11.48,3.46,11.48z"/>
	<path d="M36.02,12.49v15c0,0.74-0.26,1.01-1.01,1.01h-2.71c-0.5,0-0.77-0.14-0.98-0.48l-3.69-5.68c-1.05-1.65-1.46-2.78-2.11-4.94
		h-0.19c0.5,2.3,0.79,3.52,0.79,6.18v3.91c0,0.74-0.26,1.01-1.03,1.01h-2.42c-0.77,0-1.03-0.26-1.03-1.01v-15
		c0-0.74,0.26-1.01,1.03-1.01h2.83c0.55,0,0.79,0.14,1.01,0.48l3.93,6.13c1.05,1.65,1.25,2.56,2.01,4.38h0.19
		c-0.77-2.47-1.08-3.62-1.08-6.06v-3.93c0-0.74,0.24-1.01,1.01-1.01h2.44C35.76,11.48,36.02,11.75,36.02,12.49z"/>
	<path d="M62.5,12.49v2.16c0,0.77-0.26,1.03-1.03,1.03h-6.33v2.78h5.06c0.77,0,1.03,0.26,1.03,1.01v2.16c0,0.77-0.26,1.03-1.03,1.03
		h-5.06v4.84c0,0.74-0.24,1.01-1.01,1.01h-2.71c-0.77,0-1.03-0.26-1.03-1.01v-15c0-0.74,0.26-1.01,1.03-1.01h10.04
		C62.24,11.48,62.5,11.75,62.5,12.49z"/>
	<path d="M77.12,11.48h2.83c0.72,0,0.96,0.24,0.96,0.96v15.1c0,0.72-0.24,0.96-0.96,0.96h-2.83c-0.72,0-0.96-0.24-0.96-0.96v-15.1
		C76.16,11.72,76.4,11.48,77.12,11.48z"/>
	<path d="M109.68,12.49v15c0,0.74-0.26,1.01-1.01,1.01h-2.71c-0.5,0-0.77-0.14-0.98-0.48l-3.69-5.68c-1.05-1.65-1.46-2.78-2.11-4.94
		h-0.19c0.5,2.3,0.79,3.52,0.79,6.18v3.91c0,0.74-0.26,1.01-1.03,1.01h-2.42c-0.77,0-1.03-0.26-1.03-1.01v-15
		c0-0.74,0.26-1.01,1.03-1.01h2.83c0.55,0,0.79,0.14,1.01,0.48l3.93,6.13c1.05,1.65,1.25,2.56,2.01,4.38h0.19
		c-0.77-2.47-1.08-3.62-1.08-6.06v-3.93c0-0.74,0.24-1.01,1.01-1.01h2.44C109.42,11.48,109.68,11.75,109.68,12.49z"/>
	<path d="M125.02,11.48h2.83c0.72,0,0.96,0.24,0.96,0.96v15.1c0,0.72-0.24,0.96-0.96,0.96h-2.83c-0.72,0-0.96-0.24-0.96-0.96v-15.1
		C124.06,11.72,124.3,11.48,125.02,11.48z"/>
	<path d="M156.19,12.49v2.16c0,0.77-0.26,1.03-1.03,1.03h-3.55v11.81c0,0.74-0.26,1.01-1.03,1.01h-2.71c-0.77,0-1.01-0.26-1.01-1.01
		V15.67h-3.57c-0.77,0-1.01-0.26-1.01-1.03v-2.16c0-0.74,0.24-1.01,1.01-1.01h11.86C155.93,11.48,156.19,11.75,156.19,12.49z"/>
	<path d="M176.73,24.66c1.65,0,2.49-0.79,2.49-2.2v-9.97c0-0.74,0.24-1.01,1.01-1.01h2.71c0.77,0,1.03,0.26,1.03,1.01v9.75
		c0,4.03-2.49,6.61-7.24,6.61c-4.72,0-7.21-2.59-7.21-6.61v-9.75c0-0.74,0.24-1.01,1.01-1.01h2.71c0.77,0,1.03,0.26,1.03,1.01v9.97
		C174.26,23.87,175.07,24.66,176.73,24.66z"/>
	<path d="M215.57,12.46v15.05c0,0.74-0.26,0.98-1.03,0.98h-2.61c-0.77,0-1.01-0.24-1.01-0.98v-3.43c0-1.58,0.14-3.09,1.05-6.28
		h-0.26c-0.24,0.79-1.1,2.97-1.61,3.95l-1.34,2.71c-0.26,0.48-0.5,0.69-1.15,0.69h-1.61c-0.65,0-0.89-0.17-1.15-0.69l-1.41-2.71
		c-0.5-0.91-1.25-3.12-1.49-3.95h-0.24c0.86,3.45,0.98,4.65,0.98,6.3v3.4c0,0.74-0.26,0.98-1.03,0.98h-2.44
		c-0.77,0-1.03-0.24-1.03-0.98V12.46c0-0.77,0.26-1.01,1.03-1.01h2.25c0.84,0,1.08,0.14,1.41,0.74l3.95,7.76l3.95-7.74
		c0.34-0.65,0.55-0.77,1.34-0.77h2.4C215.3,11.46,215.57,11.7,215.57,12.46z"/>
	<path d="M247.32,11.48h0.5c0.22,0,0.29,0.07,0.29,0.31v16.39c0,0.24-0.07,0.31-0.29,0.31h-0.5c-0.24,0-0.31-0.07-0.31-0.31V11.79
		C247.01,11.55,247.08,11.48,247.32,11.48z"/>
	<path d="M269.41,11.15c3.21,0,5.03,1.17,6.28,3.71c0.12,0.22,0.05,0.34-0.14,0.41l-0.48,0.22c-0.19,0.07-0.26,0.07-0.38-0.14
		c-1.08-2.13-2.59-3.14-5.27-3.14c-3.09,0-4.89,1.34-4.89,3.64c0,2.83,2.66,3.28,5.37,3.57c2.92,0.34,5.97,0.84,5.97,4.53
		c0,3.12-2.16,4.89-6.33,4.89c-3.35,0-5.3-1.34-6.45-4.19c-0.1-0.24-0.07-0.34,0.17-0.43l0.46-0.17c0.22-0.07,0.29-0.05,0.41,0.19
		c1.03,2.42,2.73,3.55,5.42,3.55c3.45,0,5.22-1.25,5.22-3.79c0-2.83-2.49-3.19-5.1-3.5c-3-0.36-6.25-0.86-6.25-4.58
		C263.39,12.99,265.62,11.15,269.41,11.15z"/>
	<path d="M321.29,11.79v16.39c0,0.24-0.07,0.31-0.29,0.31h-0.5c-0.17,0-0.24-0.02-0.34-0.19l-8.51-12.12
		c-0.79-1.13-1.44-2.42-1.94-3.12h-0.05c0,0.91,0.14,2.44,0.14,3.95v11.17c0,0.24-0.07,0.31-0.29,0.31h-0.48
		c-0.24,0-0.31-0.07-0.31-0.31V11.79c0-0.24,0.07-0.31,0.31-0.31h0.48c0.19,0,0.29,0.1,0.34,0.17l8.27,11.81
		c0.89,1.27,1.63,2.61,2.2,3.43h0.05c0-1.05-0.17-2.66-0.17-4.31V11.77c0-0.22,0.07-0.29,0.31-0.29H321
		C321.21,11.48,321.29,11.55,321.29,11.79z"/>
	<path d="M343.16,11.15c4.17,0,6.42,2.25,6.42,5.92v5.85c0,3.67-2.25,5.92-6.42,5.92c-4.22,0-6.47-2.25-6.47-5.92v-5.85
		C336.69,13.4,338.95,11.15,343.16,11.15z M343.16,12.18c-3.5,0-5.37,1.82-5.37,4.89v5.85c0,3.07,1.87,4.89,5.37,4.89
		c3.45,0,5.32-1.82,5.32-4.89v-5.85C348.48,14,346.61,12.18,343.16,12.18z"/>
	<path d="M375.2,11.79v0.43c0,0.22-0.07,0.29-0.31,0.29h-5.2v15.67c0,0.24-0.07,0.31-0.29,0.31h-0.5c-0.24,0-0.31-0.07-0.31-0.31
		V12.51h-5.2c-0.24,0-0.31-0.07-0.31-0.29v-0.43c0-0.24,0.07-0.31,0.31-0.31h11.5C375.13,11.48,375.2,11.55,375.2,11.79z"/>
	<path d="M416.61,11.79v0.43c0,0.22-0.07,0.29-0.31,0.29h-5.2v15.67c0,0.24-0.07,0.31-0.29,0.31h-0.5c-0.24,0-0.31-0.07-0.31-0.31
		V12.51h-5.2c-0.24,0-0.31-0.07-0.31-0.29v-0.43c0-0.24,0.07-0.31,0.31-0.31h11.5C416.53,11.48,416.61,11.55,416.61,11.79z"/>
	<path d="M443.2,11.79v16.39c0,0.24-0.07,0.31-0.31,0.31h-0.5c-0.22,0-0.29-0.07-0.29-0.31V20.4h-10.14v7.79
		c0,0.24-0.07,0.31-0.29,0.31h-0.5c-0.24,0-0.31-0.07-0.31-0.31V11.79c0-0.24,0.07-0.31,0.31-0.31h0.5c0.22,0,0.29,0.07,0.29,0.31
		v7.57h10.14v-7.57c0-0.24,0.07-0.31,0.29-0.31h0.5C443.13,11.48,443.2,11.55,443.2,11.79z"/>
	<path d="M469.51,11.79v0.43c0,0.22-0.07,0.29-0.31,0.29h-8.99v6.85h7.96c0.22,0,0.29,0.07,0.29,0.29v0.43
		c0,0.24-0.07,0.31-0.29,0.31h-7.96v7.07h9.32c0.22,0,0.31,0.07,0.31,0.29v0.43c0,0.24-0.1,0.31-0.31,0.31h-10.11
		c-0.24,0-0.31-0.07-0.31-0.31V11.79c0-0.24,0.07-0.31,0.31-0.31h9.78C469.44,11.48,469.51,11.55,469.51,11.79z"/>
	<path d="M503.68,11.79v15.67h8.72c0.22,0,0.29,0.07,0.29,0.29v0.43c0,0.24-0.07,0.31-0.29,0.31h-9.51c-0.24,0-0.31-0.07-0.31-0.31
		V11.79c0-0.24,0.07-0.31,0.31-0.31h0.5C503.61,11.48,503.68,11.55,503.68,11.79z"/>
	<path d="M527.28,11.48h0.5c0.22,0,0.29,0.07,0.29,0.31v16.39c0,0.24-0.07,0.31-0.29,0.31h-0.5c-0.24,0-0.31-0.07-0.31-0.31V11.79
		C526.97,11.55,527.04,11.48,527.28,11.48z"/>
	<path d="M559.11,11.79v16.39c0,0.24-0.07,0.31-0.29,0.31h-0.48c-0.22,0-0.29-0.07-0.29-0.31v-11c0-1.25,0.05-2.59,0.17-4h-0.05
		c-0.6,1.25-1.15,2.3-1.8,3.43l-4.27,7.57c-0.1,0.19-0.19,0.24-0.38,0.24h-0.31c-0.22,0-0.31-0.02-0.41-0.24l-4.34-7.67
		c-0.62-1.08-1.15-2.11-1.73-3.33h-0.05c0.1,1.41,0.14,2.71,0.14,4v11c0,0.24-0.07,0.31-0.31,0.31h-0.43
		c-0.24,0-0.31-0.07-0.31-0.31V11.79c0-0.24,0.07-0.31,0.31-0.31h0.38c0.26,0,0.34,0.07,0.46,0.26l6.42,11.33l6.37-11.31
		c0.12-0.22,0.19-0.29,0.43-0.29h0.46C559.03,11.48,559.11,11.55,559.11,11.79z"/>
	<path d="M575.33,11.48h0.5c0.22,0,0.29,0.07,0.29,0.31v16.39c0,0.24-0.07,0.31-0.29,0.31h-0.5c-0.24,0-0.31-0.07-0.31-0.31V11.79
		C575.02,11.55,575.09,11.48,575.33,11.48z"/>
	<path d="M602.5,11.79v0.43c0,0.22-0.07,0.29-0.31,0.29h-5.2v15.67c0,0.24-0.07,0.31-0.29,0.31h-0.5c-0.24,0-0.31-0.07-0.31-0.31
		V12.51h-5.2c-0.24,0-0.31-0.07-0.31-0.29v-0.43c0-0.24,0.07-0.31,0.31-0.31h11.5C602.43,11.48,602.5,11.55,602.5,11.79z"/>
</g>
</svg>
